<?xml version="1.0" standalone="no"?>
<!DOCTYPE svg PUBLIC "-//W3C//DTD SVG 20010904//EN"
 "http://www.w3.org/TR/2001/REC-SVG-20010904/DTD/svg10.dtd">
<svg version="1.0" xmlns="http://www.w3.org/2000/svg"
 width="564.000000pt" height="745.000000pt" viewBox="0 0 564.000000 745.000000"
 preserveAspectRatio="xMidYMid meet">

<g transform="translate(0.000000,745.000000) scale(0.100000,-0.100000)"
fill="#cf0217" stroke="none">
<path d="M2560 7173 c-677 -45 -1249 -256 -1599 -589 -234 -223 -359 -459
-465 -880 -130 -514 -169 -1353 -101 -2141 l15 -172 105 -213 105 -213 20
-190 c11 -104 35 -340 54 -522 19 -183 38 -339 43 -346 7 -12 246 -325 526
-690 42 -55 77 -110 77 -121 0 -12 40 -69 88 -127 48 -59 159 -196 247 -306
l160 -200 155 -102 155 -101 675 0 675 0 152 98 151 97 133 165 c73 91 186
231 251 311 65 80 118 155 118 165 0 18 67 108 442 598 84 109 157 205 161
213 9 14 15 68 82 721 l34 333 105 215 105 216 16 171 c52 592 41 1279 -31
1782 -48 340 -144 664 -261 887 -312 592 -1134 954 -2148 946 -110 -1 -220 -3
-245 -5z m-476 -860 c21 -170 73 -591 116 -936 48 -393 81 -632 89 -636 6 -4
128 -25 271 -45 l260 -38 261 38 c143 21 265 41 270 45 10 6 31 169 185 1413
l58 468 60 -6 c192 -20 506 -101 725 -188 96 -37 297 -141 333 -171 l27 -22
11 -1055 11 -1055 96 -403 96 -403 -48 -102 c-101 -216 -204 -399 -492 -872
-241 -398 -353 -606 -399 -742 -20 -60 -56 -122 -161 -278 -75 -110 -140 -204
-145 -210 -5 -6 -44 27 -101 83 l-92 92 -695 0 -695 0 -90 -90 c-49 -50 -92
-90 -96 -90 -3 0 -70 95 -148 210 -94 140 -148 229 -158 263 -29 100 -176 386
-304 592 -151 245 -360 596 -434 729 -88 159 -205 398 -205 417 0 6 33 151 74
322 41 172 84 353 95 402 19 85 21 142 31 1065 5 536 10 1011 10 1056 l0 81
96 53 c195 108 406 190 645 250 135 34 315 68 369 69 l36 1 38 -307z m-288
-5138 c77 -107 144 -195 149 -194 6 0 51 45 100 100 l90 99 685 -1 685 0 90
-99 c50 -54 95 -99 100 -99 6 0 73 89 150 199 77 109 143 199 146 199 3 1 14
-66 24 -148 l17 -150 -39 -68 c-203 -348 -256 -433 -273 -433 -9 0 -79 27
-154 60 l-137 60 -223 0 c-190 0 -225 2 -236 16 -24 27 -47 34 -148 40 l-100
5 -35 -30 -35 -31 -221 0 -221 0 -137 -60 c-76 -34 -146 -59 -156 -58 -12 2
-62 77 -143 213 -188 317 -170 263 -149 437 10 81 21 145 25 143 4 -3 70 -93
146 -200z"/>
<path d="M1146 3803 c-4 -21 -13 -91 -21 -156 l-14 -119 121 -136 c66 -76 130
-147 142 -159 18 -19 76 -33 384 -93 199 -38 370 -70 380 -70 16 1 162 205
162 227 0 4 -53 33 -117 62 -65 30 -318 149 -563 264 -245 115 -450 211 -457
214 -7 2 -13 -11 -17 -34z"/>
<path d="M4275 3743 c-206 -98 -744 -350 -873 -409 l-73 -34 77 -112 c42 -62
79 -115 81 -117 4 -5 84 9 443 79 135 26 261 50 281 54 30 5 53 26 145 129 60
67 123 138 141 158 l32 35 -19 155 c-11 85 -20 155 -20 157 0 6 -29 -7 -215
-95z"/>
</g>
</svg>
